<?xml version="1.0" encoding="utf-8"?>
<!-- Generator: Adobe Illustrator 22.0.1, SVG Export Plug-In . SVG Version: 6.00 Build 0)  -->
<svg version="1.1" id="레이어_1" xmlns="http://www.w3.org/2000/svg" xmlns:xlink="http://www.w3.org/1999/xlink" x="0px"
	 y="0px" viewBox="0 0 200 36" style="enable-background:new 0 0 200 36;" xml:space="preserve">
<style type="text/css">
	.st0{fill:#2E2624;}
</style>
<g>
	<path class="st0" d="M40.9,22.6l12.4,0c1,0,1.8-0.3,2.1-1.2c0.3-1.2,0.6-2.2,0.4-4.5C55.5,10.8,50.4,9,47.2,9c-7,0-11,5.9-11,13.8
		c0,4.4,0.9,6.7,2.7,9.4c1.9,2.7,5.3,3.7,8.1,3.7c2.8,0,7.5-1.7,8.5-2.9c0.2-0.2,0.2-0.9,0.1-1.7c-0.1-0.6-0.4-1.5-0.8-1.3
		c-0.8,0.3-3.1,2.3-7.3,2.3c-7.2,0-7.3-6.9-7.4-8.3C40,22.7,40.3,22.7,40.9,22.6z M47,12.3c2.3,0,5.5,1.9,5.5,4.9
		c0,2.1-0.2,2.4-0.8,2.4c-0.2,0-9.7,0-10.6,0c-0.6,0-0.7-0.3-0.7-0.9C40.4,16.1,42.8,12.3,47,12.3z"/>
	<path class="st0" d="M74.9,21c-2.3-1-5.4-1.7-5.4-4.8c0-2.6,2.5-3.9,4.2-3.9c1.1,0,2.6,0.3,4.1,0.9c1.5,0.6,1.5,0.1,2.1-0.9
		c0.4-0.7,0.5-1.4,0.4-1.5c-0.9-0.8-3.5-1.8-6.4-1.8c-5.3,0-8.1,3.4-8.1,7.2c0,3.7,3.1,6,6,7.4c3,1.4,6,2.4,6.1,5
		c0,1.7-1.5,4.1-4.5,4.1c-2.6,0-5.2-1.5-6.1-2c-0.5-0.2-0.7,0.3-1.1,1.1c-0.5,1-0.8,1.8-0.5,2c1.8,1.1,5,2.2,7.6,2.2
		c4.8,0,8.5-2.9,8.5-7.6C81.6,23.5,77.2,22,74.9,21z"/>
	<path class="st0" d="M103.9,31.3c-0.8,0.3-1.5,0.8-3.5,0.9c-3.7,0-4.5-2.9-4.5-5.3V13.5c0-0.5,0.2-0.7,0.9-0.7l7.1,0
		c0.3,0,0.2-0.5,0.2-1.7c0-1.2,0.1-1.8-0.4-1.8l-6.9,0c-0.6,0-0.9-0.2-0.9-1.1V2.1c0-1-0.1-1-1.7-0.5c-1.8,0.5-1.8,0.5-1.8,1.2v5.5
		c0,0.7-0.1,1.1-0.9,1.1l-2.7,0c-0.6,0-0.4,0.7-0.4,1.7c0,1,0,1.7,0.4,1.7l2.8,0c0.5,0,0.8,0.1,0.8,0.6v11.2c0,6.4,0.9,7.8,2.3,9.3
		c1.4,1.5,3.4,1.9,4.8,1.9c1.4,0,3.4-0.6,4.8-1.2c0.7-0.3,0.7-0.5,0.5-2C104.5,31.2,104.3,31.2,103.9,31.3z"/>
	<path class="st0" d="M158,0.9c0-0.6-0.1-0.9-0.7-0.9l-5.6,0.1c-0.4,0-0.3,0.3-0.3,1.5c0,0.9,0,1.4,0.3,1.4c2.2,0,2.9,1,2.9,2.4
		v29.4c0,0.8-0.2,0.8,1.6,0.8c1.9,0,1.8,0.1,1.8-0.8V0.9z"/>
	<path class="st0" d="M193.4,10.2c-3.6,0-5.6,1.8-6.9,3.2c-0.6,0.6-0.7,0.9-1,0.9c-0.3,0-0.3-0.3-0.6-0.8c-0.3-0.5-1.5-3.2-5.2-3.2
		c-3.6,0-5.8,2.1-6.9,3.3c-0.3,0.3-0.7,0.4-0.7-0.1v-2.1c0-0.8-0.2-0.8-1.6-0.8c-1.3,0-1.7,0-1.7,0.8v23.8c0,0.6,0.4,0.6,1.7,0.6
		c1,0,1.7,0,1.7-0.6V23.3c0-5.9,2.8-9.6,6.3-9.6c3.6,0,4.2,3.2,4.2,5.7v16c0,0.7,0.6,0.5,1.6,0.5c1,0,1.7,0.2,1.7-0.5v-12
		c0-5.9,2.6-9.6,6.7-9.6c3.1,0,3.9,2.5,3.9,5v16.4c0,0.8,0.2,0.8,1.6,0.8c1.3,0,1.8-0.1,1.8-0.8V17.8C200,13,197.2,10.2,193.4,10.2z
		"/>
	<path class="st0" d="M28.2,9.8c-1.4,0-1.8-0.1-2,0.4c-0.1,0.2-3.6,18.3-3.6,18.3c-0.1,0.5-0.2,0.8-0.5,0.8c-0.3,0-0.4-0.1-0.5-0.6
		l-5.1-18.2c-0.1-0.5-0.3-0.7-1.6-0.7c-1.2,0-1.5,0.1-1.7,0.7L8.4,28.7c-0.1,0.5-0.3,0.6-0.6,0.6c-0.3,0-0.4-0.5-0.5-1.1L3.5,10.1
		C3.2,9.5,2.9,9.6,1.6,9.6C0.4,9.6,0,9.7,0,10.4c0,0.3,5.4,23.3,5.6,24.2c0.3,1,0.6,1.4,2.1,1.4c1.7,0,1.9-0.7,2.2-1.4l4.6-16.4
		c0.2-0.5,0.2-0.7,0.5-0.7c0.3,0,0.4,0.3,0.5,0.7L20,34.6c0.3,0.6,0.5,1.4,2.2,1.4c1.4,0,1.8-0.3,2.1-1.4c0.2-1,5.5-24.1,5.5-24.3
		C29.7,9.7,29.2,9.8,28.2,9.8z"/>
	<path class="st0" d="M129.1,22.6l12.4,0c1,0,1.8-0.3,2.1-1.2c0.3-1.2,0.6-2.2,0.4-4.5c-0.4-6.1-5.5-7.9-8.7-7.9
		c-7,0-11,5.9-11,13.8c0,4.4,0.9,6.7,2.7,9.4c1.9,2.7,5.3,3.7,8.1,3.7c2.8,0,7.5-1.7,8.5-2.9c0.2-0.2,0.2-0.9,0.1-1.7
		c-0.1-0.6-0.4-1.5-0.8-1.3c-0.8,0.3-3.1,2.3-7.3,2.3c-7.2,0-7.3-6.9-7.4-8.3C128.3,22.7,128.5,22.7,129.1,22.6z M135.2,12.3
		c2.3,0,5.5,1.9,5.5,4.9c0,2.1-0.2,2.4-0.8,2.4c-0.2,0-9.7,0-10.6,0c-0.6,0-0.7-0.3-0.7-0.9C128.6,16.1,131,12.3,135.2,12.3z"/>
</g>
</svg>
